<?xml version="1.0" encoding="UTF-8"?>
<svg version="1.1" xmlns="http://www.w3.org/2000/svg" width="512" height="512">
<path d="M0 0 C1.3041114 -0.00445784 2.60822281 -0.00891569 3.95185274 -0.01350862 C5.39740909 -0.01341933 6.84296544 -0.01322949 8.28852177 -0.01294994 C9.82553562 -0.01625029 11.36254862 -0.01997622 12.89956051 -0.02409142 C17.12542509 -0.03410032 21.35127547 -0.03782644 25.57715023 -0.04048073 C30.13429769 -0.04438714 34.69143395 -0.05396531 39.24857426 -0.0626936 C50.25592167 -0.08244954 61.26326998 -0.09252357 72.27063069 -0.10142139 C77.45651709 -0.10580612 82.64240248 -0.11117248 87.82828808 -0.11641026 C105.07182033 -0.13342242 122.31535194 -0.14791571 139.5588913 -0.155159 C144.0329822 -0.15706884 148.5070731 -0.15898918 152.98116398 -0.16094494 C154.09315405 -0.16142868 155.20514412 -0.16191242 156.35083086 -0.16241082 C174.35682962 -0.17070781 192.36276188 -0.19603919 210.36873161 -0.22852562 C228.86274179 -0.26161998 247.3567182 -0.27960995 265.85075814 -0.28280324 C276.23131437 -0.28496624 286.61177365 -0.29368405 296.99230099 -0.31926441 C305.83457268 -0.34100396 314.67672386 -0.34900586 323.51901924 -0.33929763 C328.0271008 -0.33476223 332.53493389 -0.33659469 337.04298115 -0.35605907 C341.17811702 -0.37375837 345.31282442 -0.37263867 349.44796527 -0.35716178 C350.93594726 -0.35479591 352.42395944 -0.35905572 353.91189545 -0.37099043 C371.21327532 -0.50105628 386.27647729 3.8198454 398.95797062 16.00922108 C410.1063248 27.88890729 415.73436613 41.62069663 415.73014164 57.99918079 C415.73381833 58.77297679 415.73749502 59.54677279 415.74128312 60.34401715 C415.75226411 62.92757504 415.75615433 65.51109262 415.75997257 68.0946703 C415.76624165 69.95134577 415.77288885 71.80802 415.77988529 73.66469288 C415.80088273 79.7560893 415.81128661 85.84748584 415.82125187 91.93890858 C415.82530164 94.04168301 415.82941863 96.14445731 415.83360195 98.24723148 C415.85264754 108.13253216 415.86687748 118.01782542 415.87521392 127.9031409 C415.88497125 139.2832907 415.91125415 150.66324521 415.95171481 162.04332626 C415.98196988 170.85806335 415.99669184 179.67274477 415.99999493 188.48753273 C416.00233552 193.74294693 416.01116561 198.99815237 416.03645611 204.25351048 C416.0599054 209.20630202 416.06390297 214.15874987 416.05369473 219.11158276 C416.05320326 220.9173933 416.05940712 222.72322175 416.07325077 224.5289793 C416.21187193 243.70236771 413.23543147 260.71847597 399.27047062 275.00922108 C388.99348337 284.76674312 376.46412723 291.24582217 362.13191319 291.26844215 C360.82021829 291.2729 359.5085234 291.27735784 358.15708017 291.28195077 C356.70297431 291.28186148 355.24886845 291.28167164 353.79476261 291.2813921 C352.24878647 291.28469241 350.70281118 291.28841833 349.15683699 291.29253358 C344.90623865 291.30254272 340.65565444 291.30626863 336.40504599 291.30892289 C331.82133256 291.31282918 327.23763029 291.32240732 322.65392399 291.33113575 C311.58280676 291.35089136 300.51168864 291.3609654 289.4405582 291.36986354 C284.22515507 291.37424807 279.00975295 291.37961447 273.79435062 291.38485241 C256.45388087 291.40186407 239.11341174 291.41635772 221.77293491 291.42360115 C217.27374108 291.425511 212.77454725 291.42743134 208.27535343 291.42938709 C206.59800302 291.4301127 206.59800302 291.4301127 204.88676673 291.43085297 C186.77662818 291.4391513 168.66655572 291.46448518 150.55644602 291.49696777 C131.95734952 291.53005504 113.3582866 291.54805144 94.75916052 291.55124539 C84.31883266 291.55340898 73.87860118 291.56213551 63.43830204 291.58770657 C54.54586296 291.60943636 45.65354366 291.61745277 36.76108104 291.60773978 C32.22679548 291.60320166 27.69275696 291.60505289 23.15850544 291.62450123 C19.00060067 291.64218071 14.84312227 291.64109669 10.68521267 291.62560394 C9.18782731 291.62323509 7.69041205 291.62751358 6.19307226 291.63943259 C-6.82258307 291.73655039 -18.4264538 289.37985979 -29.41702938 282.13422108 C-30.15437313 281.65468983 -30.89171688 281.17515858 -31.65140438 280.68109608 C-43.84573049 272.0189196 -51.16384233 258.88668775 -53.98777485 244.38188076 C-54.93738848 237.19728125 -54.70288733 229.90707377 -54.69168758 222.67206287 C-54.69604055 220.80992905 -54.70122564 218.94779702 -54.70717525 217.08566761 C-54.72051439 212.05040318 -54.72114954 207.01521405 -54.71861196 201.97993541 C-54.71753867 197.76553621 -54.72243481 193.55115202 -54.72721738 189.33675605 C-54.73829524 179.38780383 -54.73875983 169.43888937 -54.73270321 159.48993397 C-54.72666593 149.25162725 -54.7389722 139.01345806 -54.76027328 128.7751748 C-54.77792997 119.9620952 -54.78388418 111.14905921 -54.78063554 102.33596259 C-54.77882883 97.08243048 -54.78139734 91.82899644 -54.79535007 86.57548046 C-54.80798995 81.63170251 -54.80592641 76.68813777 -54.79293919 71.74436283 C-54.79058712 69.93891227 -54.79325844 68.13344642 -54.80156231 66.32801342 C-54.88536418 46.67761481 -51.51705504 30.21191986 -37.26859188 15.82953358 C-26.94789126 6.0743508 -14.34526117 0.02277356 0 0 Z M-32.41702938 30.13422108 C-39.0716697 38.95885281 -41.57091002 48.82196854 -41.55747128 59.75398731 C-41.5604424 60.51341694 -41.56341352 61.27284656 -41.56647468 62.05528921 C-41.57513514 64.59601536 -41.57666769 67.13669424 -41.57816219 69.67743397 C-41.58279236 71.50104338 -41.58781729 73.32465183 -41.59320736 75.14825916 C-41.60631689 80.10108983 -41.61277386 85.05390695 -41.61721802 90.00675225 C-41.62015194 93.10429678 -41.62425742 96.20183763 -41.62872219 99.2993803 C-41.64239521 108.99993658 -41.65206202 118.70048443 -41.65592408 128.40104967 C-41.66040021 139.58142304 -41.67792827 150.76167387 -41.70692468 161.94200999 C-41.72858209 170.59445858 -41.73863058 179.2468728 -41.7399652 187.8993482 C-41.7410106 193.0618298 -41.74686154 198.22419618 -41.76478481 203.38664913 C-41.78133507 208.24826895 -41.78338739 213.10968782 -41.77464581 217.97132587 C-41.77387906 219.74817095 -41.7781699 221.52502713 -41.78810406 223.3018446 C-41.86267576 237.48006531 -40.73074156 249.14030564 -32.41702938 261.13422108 C-31.79827938 262.04172108 -31.17952938 262.94922108 -30.54202938 263.88422108 C-23.45974394 271.38311154 -13.05903056 277.79118953 -2.54761785 278.26302224 C-1.42505183 278.26481081 -0.30248581 278.26659938 0.85409737 278.26844215 C2.79960286 278.27512892 2.79960286 278.27512892 4.78441149 278.28195077 C6.22711663 278.28186148 7.66982177 278.28167163 9.11252689 278.2813921 C10.64256618 278.28469153 12.1726046 278.28841726 13.7026419 278.29253358 C17.91375453 278.3025528 22.12485291 278.30627025 26.33597577 278.30892289 C30.87536005 278.31282619 35.41473306 278.32240454 39.95411015 278.33113575 C50.92033122 278.35089987 61.88655321 278.3609665 72.85278764 278.36986354 C78.0171465 278.3742467 83.18150434 278.37961346 88.34586239 278.38485241 C105.51387062 278.40186497 122.68187821 278.41635896 139.84989357 278.42360115 C144.30527147 278.42551104 148.76064937 278.42743137 153.21602726 278.42938709 C154.32338853 278.42987083 155.43074981 278.43035457 156.57166748 278.43085297 C174.50862482 278.43915257 192.44551546 278.46448821 210.38244367 278.49696777 C228.79843686 278.53004288 247.21439615 278.54805034 265.63041919 278.55124539 C275.97009411 278.55341011 286.30967177 278.56215323 296.64931774 278.58770657 C305.45546774 278.60941974 314.26149686 278.61746094 323.06767059 278.60773978 C327.55917165 278.60319683 332.05042333 278.60508101 336.54189014 278.62450123 C340.65840566 278.64214615 344.7744901 278.64112454 348.89101028 278.62560394 C350.37560406 278.62322987 351.8602278 278.62754099 353.34477586 278.63943259 C367.73257857 278.74748972 378.43859419 275.33157699 389.27047062 265.75922108 C398.28470606 255.52684571 402.74033295 245.28532285 402.72341251 231.50772572 C402.72638364 230.74759052 402.72935476 229.98745533 402.73241591 229.20428574 C402.74107636 226.66122562 402.74260892 224.11821273 402.74410343 221.57513905 C402.74873356 219.74990711 402.75375848 217.92467614 402.7591486 216.0994463 C402.77225758 211.14255067 402.77871486 206.18566858 402.78315926 201.22875834 C402.78609297 198.12921149 402.79019838 195.02966832 402.79466343 191.93012333 C402.80833564 182.22476369 402.81800313 172.51941248 402.82186532 162.81404388 C402.82634273 151.62517049 402.84387711 140.43641946 402.87286592 129.24758327 C402.89451464 120.59005481 402.90457134 111.93256069 402.90590644 103.27500546 C402.90695236 98.10864341 402.91281464 92.94239643 402.93072605 87.77606297 C402.94726148 82.91198394 402.94933575 78.0481058 402.94058704 73.1840086 C402.93981954 71.40513094 402.94412131 69.62624223 402.9540453 67.84739208 C403.04205134 51.08039668 400.7761145 37.97042598 388.99703312 25.46234608 C377.88005761 14.7411205 365.18641288 12.52658503 350.17403507 12.62628651 C348.64604856 12.62166888 347.11806651 12.6153102 345.59009361 12.60737753 C341.42166807 12.59077929 337.25361188 12.59888689 333.08518553 12.6113224 C328.5779427 12.62040979 324.07076135 12.60638495 319.56353092 12.59540272 C310.74585474 12.57765214 301.92831505 12.58144202 293.11063361 12.59305328 C285.94186553 12.60210098 278.7731356 12.60330583 271.60436344 12.59895802 C270.58257034 12.59834508 269.56077723 12.59773215 268.5080207 12.59710065 C266.43201787 12.59582169 264.35601506 12.59452484 262.28001225 12.59321028 C242.83091583 12.58181462 223.38189493 12.59490227 203.9328109 12.61641175 C187.25854248 12.63428179 170.58438547 12.6311774 153.91011906 12.6127367 C134.52878804 12.59131207 115.14752315 12.58291316 95.76618195 12.59518576 C93.69798057 12.5964599 91.62977919 12.59771739 89.5615778 12.59895802 C88.5440854 12.59957512 87.52659299 12.60019222 86.47826749 12.60082802 C79.32130867 12.60427614 72.16439192 12.59846419 65.00743961 12.5890398 C56.28090834 12.57780075 47.55452091 12.58089992 38.82800603 12.60216278 C34.3788701 12.61264755 29.92997368 12.61683911 25.48083973 12.60356617 C21.40219144 12.59158286 17.32400302 12.59830175 13.24539602 12.61947638 C11.77583815 12.62391744 10.30624084 12.62173281 8.83670866 12.61197323 C-7.84325248 12.5097582 -21.45754916 17.20203442 -32.41702938 30.13422108 Z " fill="#000000" transform="translate(75.41702938079834,7.865778923034668)"/>
<path d="M0 0 C5.60142682 4.64147714 10.28283574 9.73140939 14 16 C14.66 16.33 15.32 16.66 16 17 C16.2578125 16.26523437 16.515625 15.53046875 16.78125 14.7734375 C20.90033128 5.39988716 30.35370581 -1.59440446 39.5390625 -5.5078125 C54.6082074 -11.05960273 69.43102714 -12.09930808 84.4296875 -5.48828125 C94.12317403 -0.50721716 102.27454961 5.56601924 108 15 C108 15.66 108 16.32 108 17 C110.58401549 14.51934513 112.93531058 11.91533765 115.25 9.1875 C125.42973558 -2.38819088 137.25548803 -8.82977222 152.72265625 -10.25 C165.1790843 -10.78648142 178.01118166 -7.57655269 188 0 C188.84046875 0.63679688 189.6809375 1.27359375 190.546875 1.9296875 C203.00306998 12.2343579 208.32231226 25.24258283 210.375 40.8515625 C210.74292716 48.09512846 208.71953728 55.19546599 204.4921875 61.109375 C199.60779886 66.42540728 193.86715048 69.57545094 186.66452026 70.36618042 C182.68838117 70.51144349 178.723649 70.53054096 174.74609375 70.49609375 C173.27596465 70.49624905 171.80583514 70.49774323 170.33570862 70.50050354 C167.26862276 70.50188107 164.2020082 70.48943774 161.13500977 70.46655273 C157.22239482 70.43814438 153.31056016 70.44092072 149.39788723 70.45364285 C146.36678002 70.46062821 143.33585023 70.45277877 140.3047657 70.44038582 C138.86281072 70.43590078 137.4208365 70.43550847 135.97887993 70.43945122 C125.73010306 70.45436393 117.90987403 70.16832334 110 63 C107.92087418 64.00634407 105.92906313 65.04415986 103.96679688 66.26571655 C96.37745189 70.71450437 89.03777083 70.73305346 80.5 70.6640625 C79.01366786 70.66743964 77.52733843 70.67229969 76.04101562 70.67855835 C72.94113613 70.68588768 69.84198197 70.67535374 66.7421875 70.65185547 C62.7947006 70.62336845 58.84891397 70.63979398 54.90148926 70.66971779 C51.83678682 70.68789901 48.77247885 70.68198384 45.70776367 70.66907883 C44.25349723 70.66577454 42.79919342 70.66972549 41.3449707 70.68147659 C32.41033551 70.73785344 25.69431902 69.78989375 18 65 C16.67320787 64.3204083 15.34179836 63.64946085 14 63 C13.39671875 63.42152344 12.7934375 63.84304688 12.171875 64.27734375 C11.37265625 64.82519531 10.5734375 65.37304688 9.75 65.9375 C8.96109375 66.48277344 8.1721875 67.02804687 7.359375 67.58984375 C3.16236971 70.09831877 -0.60407983 70.13878288 -5.44580078 70.19287109 C-6.75461212 70.20893402 -8.06342346 70.22499695 -9.41189575 70.24154663 C-10.83969467 70.25303776 -12.26750092 70.26364568 -13.6953125 70.2734375 C-14.41834438 70.27876118 -15.14137627 70.28408485 -15.88631821 70.28956985 C-19.71684455 70.31626184 -23.54733883 70.33564533 -27.37792969 70.35009766 C-30.53219807 70.36340578 -33.68581475 70.39120469 -36.83984375 70.43212891 C-40.66358502 70.48172949 -44.48673805 70.50625199 -48.3107872 70.51332474 C-49.75953476 70.51999323 -51.20827148 70.53509911 -52.65683365 70.55921555 C-62.48876183 70.71350575 -70.54605252 69.89357567 -78.13259888 63.08651733 C-83.63618895 57.48652161 -86.02048206 51.217491 -86.4375 43.4375 C-86.03541778 32.23164337 -82.79351149 20.95646806 -76 12 C-75.04480469 10.73929687 -75.04480469 10.73929687 -74.0703125 9.453125 C-55.60774981 -12.86425847 -23.63194548 -16.20309133 0 0 Z M-64.50390625 18.8359375 C-70.32844048 27.26098179 -74.12891117 36.5745573 -72.609375 46.921875 C-71.39963853 51.04738654 -68.84051055 53.82566207 -65.21017456 56.14199829 C-62.36215135 57.24761629 -60.00483079 57.26885005 -56.94970703 57.29052734 C-55.72808868 57.30328705 -54.50647034 57.31604675 -53.24783325 57.32919312 C-51.27277298 57.33253159 -51.27277298 57.33253159 -49.2578125 57.3359375 C-47.88784649 57.34236821 -46.51788185 57.34909677 -45.1479187 57.35610962 C-42.27810483 57.36807331 -39.40841126 57.37179141 -36.53857422 57.37060547 C-32.87103907 57.37040237 -29.20427963 57.3976977 -25.53692818 57.43214989 C-22.70751441 57.45444839 -19.87828642 57.45844212 -17.04879379 57.45738602 C-15.04249074 57.46087716 -13.03624568 57.48252229 -11.03005981 57.50448608 C-2.18131937 57.55053892 -2.18131937 57.55053892 5 53 C9.08600646 47.69596624 8.69269692 42.42318965 8 36 C5.62592724 25.59930029 -0.10273168 16.27789997 -8.96875 10.2421875 C-27.65838458 -1.18724288 -50.23787494 1.11458446 -64.50390625 18.8359375 Z M29.49609375 18.8515625 C23.76363523 27.08355254 20.56294078 36.03424326 21.12109375 46.20703125 C22.15622061 51.10520888 25.11990565 53.25159983 29 56 C31.69285515 57.34642757 33.80804355 57.14948999 36.82324219 57.17700195 C38.0450116 57.18983719 39.26678101 57.20267242 40.52557373 57.21589661 C41.86600336 57.22406524 43.20643759 57.23150874 44.546875 57.23828125 C45.55891872 57.24439454 45.55891872 57.24439454 46.59140778 57.25063133 C50.16445103 57.2714944 53.73745588 57.28579346 57.31054688 57.29516602 C60.99378739 57.30621432 64.67642106 57.34059415 68.35944748 57.38033772 C71.19741911 57.40654157 74.0352472 57.41486126 76.87332916 57.41844749 C78.88852044 57.42566184 80.90361347 57.45208771 82.91864014 57.47883606 C91.78705191 57.54197264 91.78705191 57.54197264 99 53 C102.02582577 49.86983541 102.48264804 47.26815371 103 43 C102.5094908 32.25338926 98.10965962 22.5139439 90.80859375 14.625 C82.39096178 7.06185767 71.62217676 2.12695772 60.11328125 2.72265625 C47.82434964 4.33543655 37.36596918 9.00006376 29.49609375 18.8515625 Z M125.28515625 17.0859375 C118.30464407 26.44248025 114.28813722 36.17258443 116 48 C118.18459988 52.61193309 120.49142178 54.74150641 125 57 C127.96141522 57.4566115 127.96141522 57.4566115 131.16381836 57.40405273 C132.38536118 57.41673691 133.60690399 57.42942108 134.86546326 57.44248962 C136.8327816 57.43808617 136.8327816 57.43808617 138.83984375 57.43359375 C140.20838174 57.43815874 141.57691744 57.44346525 142.94544983 57.44947815 C145.80934988 57.45839714 148.6729709 57.45600041 151.53686523 57.44604492 C155.19656891 57.43455911 158.85530711 57.45476534 162.514884 57.48396206 C165.34003255 57.50235986 168.16495127 57.50202456 170.99014473 57.49632454 C172.9919916 57.49609775 174.99381698 57.51296352 176.99559021 57.53013611 C185.13618112 57.4677806 188.87975377 56.83609131 194.8125 51.3125 C198.18131866 44.75216893 197.06944854 37.92371991 195.13671875 31.05859375 C190.76990708 19.30871904 182.74950727 11.23168103 171.51171875 6 C155.72598019 -0.28483526 136.3286003 3.65268209 125.28515625 17.0859375 Z " fill="#000000" transform="translate(194,434)"/>
<path d="M0 0 C1.23662838 -0.00322445 2.47325677 -0.00644889 3.74735874 -0.00977105 C5.12708479 -0.00829978 6.50681075 -0.00673205 7.8865366 -0.00507832 C9.34645492 -0.00694553 10.80637275 -0.00924588 12.26628977 -0.01194364 C16.28795209 -0.01807902 20.30959367 -0.01792601 24.33125961 -0.01674926 C28.66466048 -0.0165457 32.99805461 -0.02205977 37.33145237 -0.02680683 C45.82478342 -0.03512328 54.31810753 -0.03786211 62.81144231 -0.03841921 C69.71255876 -0.03889387 76.61367291 -0.04094608 83.51478863 -0.04411983 C103.06628775 -0.05292884 122.61778137 -0.05753878 142.16928249 -0.05678936 C143.22393182 -0.0567494 144.27858115 -0.05670945 145.36518955 -0.05666828 C146.94908738 -0.05660696 146.94908738 -0.05660696 148.56498314 -0.0565444 C165.68546165 -0.05613778 182.80591819 -0.06571073 199.92639034 -0.07980665 C217.49141896 -0.09415488 235.05643684 -0.1010777 252.62147146 -0.10021287 C262.48862356 -0.09988038 272.35575261 -0.10265023 282.22289944 -0.11339092 C290.62265011 -0.12247549 299.0223673 -0.12468804 307.42212074 -0.1178815 C311.71014981 -0.11460602 315.99811455 -0.11459647 320.28613758 -0.12323475 C324.20854652 -0.13105545 328.13083965 -0.12971406 332.05324561 -0.12095062 C333.4751563 -0.1194058 334.89707543 -0.12126839 336.31897616 -0.12681069 C338.2463459 -0.13382795 340.17375075 -0.12740697 342.10112 -0.12025452 C343.17334287 -0.12047188 344.24556575 -0.12068925 345.35028023 -0.12091321 C348.14478059 0.13146119 349.78233379 0.59532342 352.11348057 2.12863445 C353.5128307 4.92733472 353.36613462 7.03362237 353.11348057 10.12863445 C351.97099262 11.79644549 351.97099262 11.79644549 350.11348057 13.12863445 C347.44126791 13.50468194 347.44126791 13.50468194 344.14328766 13.50615788 C342.8880089 13.51398112 341.63273014 13.52180436 340.33941263 13.52986467 C338.93865611 13.5233779 337.53790088 13.5166079 336.13714695 13.50958538 C334.65517633 13.51303991 333.17320827 13.51780308 331.69124562 13.52376711 C327.60865043 13.53633494 323.5262646 13.53008063 319.44366848 13.52080846 C315.04485415 13.51404193 310.64607671 13.52448721 306.24726963 13.53274822 C297.62624727 13.54611311 289.0053031 13.54319568 280.38427763 13.5345103 C273.38064035 13.52774542 266.37702504 13.52681184 259.37338543 13.53008175 C257.88032927 13.5307713 257.88032927 13.5307713 256.35711037 13.53147478 C254.33528343 13.53243391 252.31345649 13.53340655 250.29162956 13.53439255 C231.3173969 13.5429544 212.34320768 13.53309962 193.36898214 13.51699145 C177.07293708 13.50358549 160.77695612 13.50591712 144.48091221 13.51974773 C125.57475655 13.53578597 106.66863897 13.54213253 87.76247746 13.53291094 C85.74823829 13.53195525 83.73399912 13.53101214 81.71975994 13.53008175 C80.23303614 13.52938751 80.23303614 13.52938751 78.71627752 13.52867924 C71.71703615 13.52608423 64.71781885 13.53047129 57.7185812 13.53752041 C49.1946862 13.54591604 40.67087413 13.54369616 32.14698868 13.52767818 C27.79437589 13.51976956 23.44190157 13.5167477 19.08928967 13.52662563 C15.11018126 13.53551968 11.13134061 13.53072797 7.15225673 13.51469298 C5.70750478 13.51132259 4.26273053 13.5130894 2.81799274 13.52032034 C0.86462111 13.52935228 -1.08881325 13.51835706 -3.04216766 13.50615788 C-4.13033879 13.50567082 -5.21850992 13.50518376 -6.33965594 13.50468194 C-7.60035337 13.31853844 -7.60035337 13.31853844 -8.88651943 13.12863445 C-11.19984429 9.65864716 -11.22609506 8.20354197 -10.88651943 4.12863445 C-7.87573819 -0.38753742 -5.08950974 0.00334419 0 0 Z " fill="#000000" transform="translate(84.88651943206787,74.87136554718018)"/>
<path d="M0 0 C1.00672428 -0.00583219 2.01344855 -0.01166439 3.05067962 -0.01767331 C4.71436878 -0.01200433 4.71436878 -0.01200433 6.41166782 -0.00622082 C7.58747191 -0.01004636 8.76327601 -0.01387191 9.97471052 -0.01781338 C13.24390953 -0.02636615 16.51296578 -0.02590232 19.78216875 -0.02163279 C23.30575497 -0.01917218 26.82931445 -0.02817142 30.35289097 -0.03567028 C37.25804174 -0.04843785 44.16315366 -0.05020842 51.06831425 -0.04787002 C56.67938812 -0.04608901 62.29045018 -0.04783183 67.90152264 -0.05209446 C68.69926531 -0.05268965 69.49700799 -0.05328484 70.31892468 -0.05389806 C71.93939316 -0.05510978 73.55986163 -0.05632391 75.18033011 -0.05754044 C90.38668186 -0.06842389 105.59301145 -0.06624967 120.79936446 -0.06015559 C134.71893086 -0.0549856 148.63842731 -0.06624262 162.55797987 -0.08525381 C176.84145754 -0.10461291 191.12490208 -0.11289161 205.40839297 -0.10913056 C213.43114432 -0.10721559 221.45383612 -0.10973475 229.47657681 -0.1238451 C236.30630318 -0.13573534 243.13593334 -0.1371904 249.96566098 -0.12505493 C253.45172365 -0.1191496 256.93761011 -0.11811212 260.42366123 -0.13005733 C264.19920723 -0.14044117 267.97427437 -0.13249119 271.74980259 -0.11974621 C272.85669797 -0.12712049 273.96359336 -0.13449478 275.10403103 -0.14209253 C276.11336305 -0.13488598 277.12269507 -0.12767944 278.16261292 -0.12025452 C279.47020873 -0.12033704 279.47020873 -0.12033704 280.80422062 -0.12042123 C283.69669366 0.34298731 285.06865343 1.20389546 287.14422703 3.25447559 C287.89001435 9.22077415 287.89001435 9.22077415 285.92134517 11.9494558 C283.58265499 13.66686383 282.16217845 13.6313925 279.27283669 13.63479233 C278.26262901 13.64323227 277.25242134 13.65167221 276.21160132 13.66036791 C274.54207574 13.65135284 274.54207574 13.65135284 272.83882236 13.64215565 C271.0689909 13.65023395 271.0689909 13.65023395 269.26340526 13.65847546 C265.9827441 13.67033457 262.7024067 13.66867047 259.42174232 13.66130865 C255.88587393 13.65659115 252.35006079 13.66907421 248.81420994 13.67932606 C241.88498048 13.69654745 234.95584157 13.69734716 228.02659626 13.69211315 C222.39597127 13.68807637 216.76537311 13.68950914 211.13474941 13.69486141 C209.93397236 13.69598405 209.93397236 13.69598405 208.70893718 13.69712936 C207.0828317 13.69866079 205.45672623 13.70019914 203.83062076 13.70174433 C188.57132339 13.71548148 173.31207725 13.71002318 158.05278104 13.69855911 C144.08469266 13.6886257 130.11673672 13.70156708 116.14866877 13.7254933 C101.81546338 13.7498605 87.48231974 13.75949803 73.14909405 13.75284058 C65.09838125 13.74934302 57.04777035 13.75161568 48.99707317 13.76909161 C42.14353083 13.78378392 35.29016211 13.78448818 28.43662328 13.76702069 C24.9383628 13.75848355 21.44041286 13.75642661 17.94216824 13.77167225 C14.15335351 13.78477443 10.36539245 13.77342926 6.57661533 13.75568104 C5.465829 13.76528604 4.35504267 13.77489105 3.21059614 13.78478712 C2.19778073 13.77497283 1.18496531 13.76515854 0.14145851 13.75504684 C-1.17069394 13.75488584 -1.17069394 13.75488584 -2.50935453 13.75472158 C-5.68196036 13.07833611 -6.90319853 11.80022089 -8.85577297 9.25447559 C-8.79327297 5.62947559 -8.79327297 5.62947559 -7.85577297 2.25447559 C-4.61272946 0.09244659 -3.74156212 0.003721 0 0 Z " fill="#000000" transform="translate(150.85577297210693,146.7455244064331)"/>
<path d="M0 0 C8.45690723 6.03249875 15.00770408 15.0116174 17.0703125 25.3671875 C18.56768722 39.27138136 16.49488563 50.24854856 8.31640625 61.65234375 C1.40042712 69.99697584 -7.6836977 75.79152373 -18.61328125 76.83691406 C-33.4296427 77.79391882 -44.29226309 74.60611032 -55.68359375 64.65234375 C-65.11062375 54.73635991 -67.18591463 43.41122952 -66.953125 30.20703125 C-66.51533067 19.69565407 -61.62714229 11.37674117 -54.68359375 3.65234375 C-39.1296806 -10.46139226 -17.32468046 -11.08887998 0 0 Z M-46.68359375 14.65234375 C-52.81963523 23.66149642 -54.8628768 30.66460071 -53.68359375 41.65234375 C-50.85792102 50.38165416 -46.41557901 56.48230669 -38.4375 60.89453125 C-31.27870009 64.21621441 -23.87707108 65.0345448 -16.203125 62.9921875 C-6.38787026 59.08973682 -0.62200868 52.26377734 3.56640625 42.83984375 C5.54367453 34.43645355 4.5118543 27.20415025 0.31640625 19.65234375 C-4.72301319 12.41753367 -10.97945524 7.6609911 -19.68359375 5.65234375 C-30.05660693 4.56908604 -39.3219382 6.9560675 -46.68359375 14.65234375 Z " fill="#000000" transform="translate(186.68359375,328.34765625)"/>
<path d="M0 0 C8.23843159 6.42217794 14.09352683 15.066209 16.1875 25.375 C17.62073802 38.64734855 15.88752017 50.17242127 8.01171875 61.2421875 C1.62650623 68.70755375 -7.05863815 74.53977861 -16.8125 76.375 C-30.27448893 77.24489547 -42.07980465 76.4185483 -52.78515625 67.28125 C-61.34641376 59.23135854 -67.25283765 50.189682 -68.015625 38.17578125 C-68.1979811 24.60544813 -64.92669923 13.99851327 -55.8125 3.6875 C-40.44663167 -10.81705284 -17.07262594 -11.47466288 0 0 Z M-49.8125 17.375 C-54.39191433 24.24412149 -55.62730699 31.27349051 -54.8125 39.375 C-52.63291 48.09335999 -47.76822449 54.30729529 -40.75 59.75 C-33.25582346 63.89571468 -25.42131738 64.7752154 -17.05859375 62.6875 C-8.83728099 59.67511059 -3.71763938 55.4872723 0.625 47.875 C4.14147364 40.25597378 4.91576993 32.46492438 2.19140625 24.44140625 C1.00316168 21.95016453 -0.29585852 19.67853662 -1.8125 17.375 C-2.410625 16.446875 -3.00875 15.51875 -3.625 14.5625 C-9.62758039 8.55991961 -16.65262838 5.34491239 -25.125 5.0625 C-35.95629498 5.3552377 -42.55488035 9.30807744 -49.8125 17.375 Z " fill="#000000" transform="translate(375.8125,328.625)"/>
<path d="M0 0 C11.42903522 7.07597008 18.80878691 17.01787356 22 30 C23.12758675 42.6263493 21.84450631 54.2552287 13.4921875 64.33203125 C12.99976563 64.88246094 12.50734375 65.43289063 12 66 C11.236875 66.86625 10.47375 67.7325 9.6875 68.625 C-0.85830686 77.94455024 -10.60671327 80.89197465 -24.484375 80.40234375 C-36.02895309 79.62315755 -44.26581563 74.3096863 -52 66 C-52.89525391 65.0409375 -52.89525391 65.0409375 -53.80859375 64.0625 C-61.03409489 55.41352108 -62.86813799 44.89992751 -62.3828125 33.90625 C-61.09711959 20.78693464 -55.08678395 12.13508359 -45.296875 3.7578125 C-32.51468456 -6.0244761 -14.2958027 -7.0645439 0 0 Z M-43 20 C-48.8129328 27.49562388 -49.95937251 34.69876653 -49 44 C-46.26630258 54.18795481 -40.95624086 59.7715772 -32 65 C-25.68833505 68.08570287 -17.88997509 68.04378308 -11.17578125 66.2421875 C-1.37491473 62.52108123 3.82443055 56.49548296 8.375 47.1875 C10.07674969 38.5085766 9.81265826 30.57887826 5 23 C0.05467714 16.28250333 -5.64209374 10.8573125 -14 9 C-26.30795863 7.83787515 -34.47612473 11.12821145 -43 20 Z " fill="#000000" transform="translate(276,325)"/>
<path d="M0 0 C1.23529449 -0.00708481 2.47058899 -0.01416962 3.74331665 -0.02146912 C5.11973608 -0.01917509 6.49615517 -0.01666536 7.87257385 -0.01396179 C9.31626144 -0.01830704 10.75994672 -0.02348956 12.20362854 -0.02944946 C16.13129809 -0.04287122 20.05887161 -0.04341461 23.98655963 -0.04088616 C27.26204777 -0.03981856 30.53751631 -0.04469442 33.81300026 -0.04949158 C41.53876488 -0.06059783 49.26448089 -0.06101796 56.99024963 -0.05497742 C64.96781535 -0.04893602 72.94520477 -0.06125022 80.9227404 -0.08254749 C87.76524528 -0.10014483 94.60769396 -0.10616779 101.45022064 -0.10290974 C105.53990567 -0.10109369 109.62946496 -0.10376493 113.71912956 -0.11762428 C117.56459345 -0.13016771 121.40978191 -0.12829189 125.25524139 -0.11521339 C126.66819666 -0.11284038 128.08117109 -0.11560815 129.49410439 -0.12383652 C131.4197099 -0.13424354 133.34539336 -0.12443454 135.27099609 -0.11352539 C136.88899439 -0.113777 136.88899439 -0.113777 138.53967953 -0.1140337 C141.19898987 0.26069641 141.19898987 0.26069641 143.04214573 1.56533527 C145.00938615 4.44833639 144.61881437 6.90210036 144.19898987 10.26069641 C141.99438909 12.51425357 140.60634768 13.20388753 137.47186375 13.64101315 C135.89427737 13.64465799 135.89427737 13.64465799 134.28482056 13.64837646 C133.07490952 13.6582811 131.86499847 13.66818573 130.61842346 13.6783905 C129.28077596 13.67415253 127.94312945 13.66959467 126.60548401 13.66474915 C125.19429992 13.67045249 123.78312044 13.67741661 122.37194824 13.68554688 C118.54132658 13.70349791 114.71093374 13.70230627 110.88028264 13.69660449 C107.68191897 13.69351532 104.48359942 13.69960207 101.28524202 13.70564324 C93.73960831 13.71969333 86.1940878 13.71812328 78.64845276 13.70674133 C70.86509264 13.69526021 63.08207709 13.70933439 55.29876238 13.73613781 C48.61498241 13.75829262 41.93131063 13.76493268 35.24749655 13.7590614 C31.25611111 13.75568998 27.26494654 13.75811887 23.273592 13.77531242 C19.51993863 13.7907761 15.76679576 13.786833 12.01316261 13.76800728 C10.63652392 13.76431968 9.25984746 13.76743496 7.88324356 13.77789307 C6.00224873 13.7910907 4.12112211 13.77715488 2.24014282 13.76190186 C1.18804154 13.76169257 0.13594027 13.76148329 -0.94804287 13.76126766 C-4.56524427 13.12660667 -6.26694693 11.88652258 -8.80101013 9.26069641 C-8.67562512 1.98836596 -7.09443228 0.01350654 0 0 Z " fill="#000000" transform="translate(293.80101013183594,218.7393035888672)"/>
</svg>
